<svg t="1686046766669" class="icon" viewBox="0 0 1024 1024" version="1.1" xmlns="http://www.w3.org/2000/svg" p-id="1920"
     width="48" height="48">
    <path d="M924.32 292.8a16 16 0 0 0-12.64-16 150.4 150.4 0 0 1-75.84-44A224.96 224.96 0 0 1 800 160a16 16 0 0 0-10.08-11.2s-73.6-27.04-265.12-97.6a16 16 0 0 0-7.68 0 14.56 14.56 0 0 0-7.84 0c-192 70.56-264.32 96.96-264.32 96.96a16 16 0 0 0-10.08 11.2 219.36 219.36 0 0 1-36.64 74.08 152.48 152.48 0 0 1-75.84 44 16 16 0 0 0-12.64 16c0 10.72-4.16 262.88 80 418.24 109.76 204.48 320 279.84 321.6 280.32a14.56 14.56 0 0 0 3.68 0 16 16 0 0 0 2.72 0 12.16 12.16 0 0 0 2.56 0h3.68a613.12 613.12 0 0 0 154.88-88 16 16 0 0 0 3.04-22.4 16 16 0 0 0-22.56-3.04A608 608 0 0 1 517.12 960c-20.96-8-201.6-80.96-299.84-263.84-69.44-129.6-75.2-338.88-75.52-390.72a176 176 0 0 0 81.28-51.52A247.52 247.52 0 0 0 263.52 176c22.88-8.32 99.2-36.16 253.6-93.12C672 139.36 747.68 167.2 770.56 176a247.52 247.52 0 0 0 40.48 78.24 176 176 0 0 0 81.28 51.52c0 43.36-4.16 197.28-46.4 322.08a16 16 0 0 0 10.08 20.32 13.76 13.76 0 0 0 5.12 0.8 16 16 0 0 0 16-10.88c50.88-152 47.36-337.44 47.2-345.28z"
          fill="#f4ea2a" p-id="1921"></path>
    <path d="M514.08 466.4a110.72 110.72 0 0 0-92.16 126.4 16 16 0 0 0 16 13.6h2.88a16 16 0 0 0 13.28-18.24 78.72 78.72 0 0 1 65.6-89.92 16 16 0 0 0-4.96-32zM417.76 289.6h200.32a16 16 0 0 0 0-32H417.76a16 16 0 0 0 0 32z"
          fill="#f4ea2a" p-id="1922"></path>
    <path d="M679.2 675.84A180.48 180.48 0 1 0 512.96 752a174.08 174.08 0 0 0 18.24 0.96 179.04 179.04 0 0 0 114.08-40.96 192 192 0 0 0 13.44-12.16l156.32 122.88a16 16 0 0 0 9.92 3.36 16 16 0 0 0 12.48-6.08 16 16 0 0 0-2.56-22.56z m-54.24 12.16a148.48 148.48 0 1 1-94.4-263.36h15.04a148.32 148.32 0 0 1 80 262.56z"
          fill="#f4ea2a" p-id="1923"></path>
</svg>